<?xml version="1.0" encoding="UTF-8"?>
<svg version="1.1" xmlns="http://www.w3.org/2000/svg" width="196" height="735">
<path d="M0 0 C0.66 0 1.32 0 2 0 C2.19552711 0.80328735 2.19552711 0.80328735 2.39500427 1.62280273 C10.6250663 36.97240822 10.6250663 36.97240822 23 71 C23.63953613 72.45019531 23.63953613 72.45019531 24.29199219 73.9296875 C31.66221412 90.44238056 39.73292949 105.5797456 51.8293457 119.08276367 C78.58009211 149.07861881 102.85734727 183.87021098 100.89160156 225.28369141 C100.14898227 237.69410655 97.45672318 248.83350331 87.859375 257.5390625 C84.07994307 260.50861616 80.20883483 263.31790252 75.5847168 264.74584961 C72.28760465 266.34566685 71.43290848 267.93071096 69.65234375 271.109375 C69.05317139 272.16294189 68.45399902 273.21650879 67.83666992 274.30200195 C67.20994385 275.43984131 66.58321777 276.57768066 65.9375 277.75 C65.27360779 278.93313431 64.60863682 280.11566389 63.94262695 281.29760742 C62.59102369 283.70355559 61.24923378 286.11457817 59.91601562 288.53076172 C58.19102964 291.65411173 56.44976498 294.76763682 54.703125 297.87890625 C52.20938294 302.3476221 49.77591299 306.84464172 47.38769531 311.37060547 C46.46518357 313.11857372 45.53487057 314.86244772 44.59667969 316.60205078 C37.23071003 330.3658764 33.44775001 343.61667671 31 359 C30.75878418 360.48862549 30.75878418 360.48862549 30.51269531 362.00732422 C29.60697492 367.66294116 28.77219588 373.32467419 28 379 C28.58265625 378.67386719 29.1653125 378.34773438 29.765625 378.01171875 C40.68236446 372.19289064 50.68498291 370.46370087 63 371 C62.67 372.65 62.34 374.3 62 376 C60.91332031 376.23783203 60.91332031 376.23783203 59.8046875 376.48046875 C51.45286933 378.49604087 46.65722504 381.146287 41.9375 388.5 C35.78302791 399.28652213 31.68994649 410.51596063 33 423 C35.38158462 431.10900519 40.57314169 435.8484122 47 441 C47.66 441.66 48.32 442.32 49 443 C40.45059316 444.26657879 32.5570779 444.26043698 24 443 C23.84805156 458.32765831 24.26291905 473.61742308 24.79956055 488.93505859 C24.93702874 492.86153953 25.06953077 496.78816354 25.20117188 500.71484375 C25.59088912 512.19682247 26.00867496 523.67610528 26.54296875 535.15234375 C26.58458633 536.04644455 26.62620392 536.94054535 26.66908264 537.86174011 C26.7084343 538.70626236 26.74778595 539.55078461 26.78833008 540.42089844 C27.04038807 545.8426693 27.27925298 551.26038483 27.375 556.6875 C27.43107422 558.00331055 27.43107422 558.00331055 27.48828125 559.34570312 C27.52039685 561.66694719 27.49000893 563.7317713 27 566 C23.52923704 569.36027051 19.64832767 569.38535358 15 570 C12.81532558 588.93776699 11.17743124 607.84823656 10 626.875 C9.87390635 628.8600423 9.74781031 630.84508445 9.62152195 632.83011436 C8.15975892 655.89028283 6.99943449 678.96406198 5.95117188 702.04638672 C5.89390427 703.29683777 5.83663666 704.54728882 5.77763367 705.83563232 C5.67238297 708.1472586 5.5691746 710.45897932 5.46858215 712.77081299 C5.14717454 719.86473568 4.63866107 726.92763049 4 734 C3.34 734 2.68 734 2 734 C0.36477961 710.7248373 -1.11863018 687.44902153 -2.31552124 664.1468811 C-2.72867232 616.98988539 -2.72867232 616.98988539 -11 571 C-12.95573945 570.09229133 -14.92509342 569.5478047 -16.9921875 568.94140625 C-19.61807211 567.71020354 -20.49688074 566.47724884 -22 564 C-22.36437988 561.34631348 -22.36437988 561.34631348 -22.34570312 558.24414062 C-22.34389038 557.05389282 -22.34207764 555.86364502 -22.34020996 554.6373291 C-22.31102478 552.66669495 -22.31102478 552.66669495 -22.28125 550.65625 C-22.26980685 549.2462204 -22.25896073 547.83618585 -22.24865723 546.42614746 C-22.06329311 527.12622655 -21.30616652 507.83232989 -20.60931396 488.54571533 C-20.42422297 483.38869377 -20.24563448 478.2314468 -20.06640625 473.07421875 C-19.71709742 463.04925591 -19.36090707 453.02455156 -19 443 C-19.66 443.33 -20.32 443.66 -21 444 C-24.1402818 444.23714528 -27.28923801 444.1851834 -30.4375 444.1875 C-31.30955078 444.19974609 -32.18160156 444.21199219 -33.08007812 444.22460938 C-33.91861328 444.22654297 -34.75714844 444.22847656 -35.62109375 444.23046875 C-36.3886499 444.23457764 -37.15620605 444.23868652 -37.94702148 444.24291992 C-40 444 -40 444 -43 442 C-42.41992188 441.61070312 -41.83984375 441.22140625 -41.2421875 440.8203125 C-34.29232252 435.84301646 -28.64729361 429.66157609 -27 421 C-25.79531769 407.98943107 -31.69553459 394.77476358 -39.4375 384.5625 C-44.94968977 379.05031023 -50.50860824 377.2910335 -58 376 C-58.33 374.35 -58.66 372.7 -59 371 C-45.67095364 370.4109914 -34.67946879 372.49061897 -23 379 C-25.21370927 344.47985202 -39.05748861 316.88377898 -55.9609375 287.3359375 C-58.63887202 282.65164554 -61.25979081 277.94116479 -63.8125 273.1875 C-64.75029297 271.44533203 -64.75029297 271.44533203 -65.70703125 269.66796875 C-67 267 -67 267 -67 265 C-68.09828125 264.82404297 -68.09828125 264.82404297 -69.21875 264.64453125 C-78.59407184 262.47187942 -85.52631396 256.11706985 -90.66796875 248.31640625 C-96.04432705 238.9669034 -95.20689063 228.16846601 -95.25 217.6875 C-95.270625 216.44548828 -95.29125 215.20347656 -95.3125 213.92382812 C-95.41104096 190.43412762 -83.42188681 168.69945027 -70 150 C-69.49839355 149.29617187 -68.99678711 148.59234375 -68.47998047 147.8671875 C-62.51179465 139.52602449 -56.45850999 131.33499925 -49.6875 123.625 C-24.23344255 94.47593177 -11.98359579 56.580993 -4.125 19.3125 C-3.71958485 17.42364874 -3.31333822 15.53497576 -2.90625 13.64648438 C-1.92795962 9.09964188 -0.96075267 4.55057905 0 0 Z M2 72 C1.59910156 73.17433594 1.19820313 74.34867187 0.78515625 75.55859375 C-7.41498154 99.02194098 -19.9879484 117.88017857 -35.70703125 136.97265625 C-63.33522026 170.4254975 -63.33522026 170.4254975 -75.375 211.1875 C-74.1930738 223.20374967 -68.36090708 236.11888107 -59 244 C-51.7426019 249.88431798 -43.91232804 249.71170992 -35.0144043 249.54199219 C-32.67477424 249.49977035 -30.33799764 249.5009641 -27.99804688 249.5078125 C-26.50258422 249.49732975 -25.00713629 249.48439658 -23.51171875 249.46875 C-22.81688889 249.46854858 -22.12205902 249.46834717 -21.40617371 249.46813965 C-17.33525132 249.3686915 -14.96786036 248.85187283 -12 246 C-12.33773437 245.23816406 -12.67546875 244.47632813 -13.0234375 243.69140625 C-17.0405128 234.39176084 -19.04375627 226.04055913 -20 216 C-20.433125 216.66 -20.86625 217.32 -21.3125 218 C-24.99739781 220.74224953 -27.85895726 220.43975418 -32.34375 220.43359375 C-35.50837695 219.91701494 -36.84035159 219.38102467 -39 217 C-40.52036178 210.46161353 -41.04551259 202.90353405 -38.15625 196.68359375 C-35.32501502 192.56108605 -31.73018878 189.57672959 -27 188 C-25.08443851 187.89149685 -23.16537241 187.84113842 -21.24682617 187.82299805 C-19.47434761 187.80374519 -19.47434761 187.80374519 -17.6660614 187.78410339 C-16.38794083 187.77671646 -15.10982025 187.76932953 -13.79296875 187.76171875 C-12.47968094 187.753647 -11.16639313 187.74557526 -9.81330872 187.73725891 C-7.03170908 187.7222455 -4.25013486 187.71240107 -1.46850586 187.70483398 C2.08579985 187.69377655 5.6394783 187.65937928 9.19356251 187.61966228 C12.59385989 187.5871534 15.99409049 187.58271397 19.39453125 187.57421875 C20.66657913 187.55671066 21.93862701 187.53920258 23.2492218 187.52116394 C34.28217268 187.54826276 34.28217268 187.54826276 39 192 C43.31199911 197.7104853 44.20011969 201.99181576 44.25 209 C44.270625 209.72445312 44.29125 210.44890625 44.3125 211.1953125 C44.33403204 214.11290452 44.34654303 216.40508142 42.85546875 218.96484375 C38.67921919 221.2947514 33.57612437 220.81535918 29 220 C26.74777614 218.14995897 26.19595655 216.73361496 25 214 C24.67 214 24.34 214 24 214 C23.97421875 214.83660156 23.9484375 215.67320312 23.921875 216.53515625 C23.46533911 225.90451785 21.64575058 234.02649594 19 243 C18.65761113 244.33103672 18.31923102 245.66322012 18 247 C22.99485248 250.32990166 29.03275432 249.37185763 34.88598633 249.37060547 C37.16239739 249.37495207 39.43682603 249.41119793 41.71289062 249.44921875 C50.87907276 249.52255275 57.19584438 249.00221389 64.50390625 242.9140625 C73.52412156 232.88399386 79.37623073 221.92665797 79.2109375 208.2734375 C77.55862684 182.63202388 58.35973195 158.21545788 42.625 139.125 C26.06695406 119.02129129 9.94891571 97.4900318 3 72 C2.67 72 2.34 72 2 72 Z M-39 272 C-37.51102715 276.46691855 -36.13068235 279.85400102 -33.875 283.875 C-33.33617187 284.84179688 -32.79734375 285.80859375 -32.2421875 286.8046875 C-31.83226562 287.52914063 -31.42234375 288.25359375 -31 289 C-30.67 289 -30.34 289 -30 289 C-29.79503906 288.02417969 -29.59007813 287.04835938 -29.37890625 286.04296875 C-29.10949219 284.77066406 -28.84007813 283.49835938 -28.5625 282.1875 C-28.29566406 280.92292969 -28.02882813 279.65835937 -27.75390625 278.35546875 C-27 275 -27 275 -26 272 C-30.29 272 -34.58 272 -39 272 Z M31 272 C31.309375 273.299375 31.61875 274.59875 31.9375 275.9375 C32.98418325 280.61416985 33.54585404 285.23146739 34 290 C36.52689194 286.78112842 38.61942974 283.40415973 40.6875 279.875 C41.31011719 278.82054687 41.93273437 277.76609375 42.57421875 276.6796875 C44.15657323 274.21162604 44.15657323 274.21162604 44 272 C39.71 272 35.42 272 31 272 Z M-6 277 C-6 277.33 -6 277.66 -6 278 C-0.72 278 4.56 278 10 278 C5.58256666 273.58256666 -0.72895429 274.75980557 -6 277 Z M1 288 C1.33 288.99 1.66 289.98 2 291 C2.66 290.01 3.32 289.02 4 288 C3.01 288 2.02 288 1 288 Z M-15 307 C-14.855625 307.6290625 -14.71125 308.258125 -14.5625 308.90625 C-14.376875 309.7621875 -14.19125 310.618125 -14 311.5 C-13.814375 312.3353125 -13.62875 313.170625 -13.4375 314.03125 C-13 317 -13 317 -13.1640625 320.71484375 C-13.22556926 325.94414833 -11.29800046 330.27144956 -9.375 335.0625 C-5.8574549 344.19009866 -3.16306799 353.33480744 -0.90380859 362.84985352 C-0.68031738 363.77209717 -0.45682617 364.69434082 -0.2265625 365.64453125 C-0.03658691 366.46284424 0.15338867 367.28115723 0.34912109 368.12426758 C0.82619932 370.20409656 0.82619932 370.20409656 3 371 C3.17539307 370.31188232 3.35078613 369.62376465 3.53149414 368.91479492 C6.74461987 356.40473397 9.94958566 344.02051667 14.86547852 332.0534668 C16.68845362 327.48685913 17.19851021 323.99283261 17 319 C17.4375 316.70703125 17.4375 316.70703125 18 314.8125 C19.16914179 311.01205796 19.16914179 311.01205796 19 307 C7.53795591 306.13769344 -3.54654751 305.98572968 -15 307 Z M1 417 C1 448.02 1 479.04 1 511 C1.33 511 1.66 511 2 511 C2.26477828 502.14009104 2.52577155 493.28008014 2.78230286 484.41992855 C2.90161032 480.30309135 3.02208516 476.18629613 3.14550781 472.06958008 C3.6951278 453.70894646 4.17303209 435.37144184 4 417 C3.01 417 2.02 417 1 417 Z " fill="#160201" transform="translate(95,0)"/>
</svg>
