<?xml version="1.0" encoding="UTF-8"?>
<svg version="1.1" xmlns="http://www.w3.org/2000/svg" width="145" height="1299">
<path d="M0 0 C0.33 0 0.66 0 1 0 C1.71425903 11.68328818 2.19920637 23.34408895 2.41723633 35.04660034 C2.45011984 36.68288404 2.48327801 38.31916224 2.51668209 39.9554354 C2.60665707 44.40393589 2.69259902 48.85250598 2.7777497 53.30110109 C2.87095495 58.13568173 2.9678102 62.97018968 3.06406498 67.80471039 C3.27449006 78.41289343 3.47976404 89.02117245 3.68390775 99.62947798 C3.81293877 106.3338784 3.94307613 113.0382571 4.07333183 119.74263382 C4.65517079 149.71434895 5.22529626 179.68627909 5.78894586 209.65834149 C5.92934926 217.12419643 6.07011108 224.59004449 6.21120545 232.0558864 C10.43773984 455.72116287 10.43773984 455.72116287 10.96414721 619.3081013 C10.96404126 625.52279879 10.96733151 631.73748458 10.97348022 637.95217896 C10.97428396 638.79833389 10.9750877 639.64448883 10.97591579 640.51628482 C10.98006255 644.75043048 10.98495842 648.98457389 10.99077415 653.21871758 C11.00225103 662.50318325 10.99528557 671.78734066 10.96807861 681.07177734 C10.94151895 690.32198971 10.94517994 699.57170755 10.98107749 708.82189322 C10.99907253 713.72175699 11.00348737 718.6207022 10.97279167 723.52052307 C10.94470061 728.04064822 10.95354497 732.55916174 10.99126124 737.07920265 C10.99847505 738.73660421 10.99197707 740.39412978 10.97086644 742.05141258 C10.47755613 750.58173856 10.47755613 750.58173856 13.72447014 758.00758362 C15.77768255 759.28905135 17.75981999 760.10459487 20 761 C23.40192441 763.75303783 25.61222349 766.18386683 26.54296875 770.54296875 C27.03112951 779.89718436 23.16311189 786.71418056 17.1875 793.625 C16.13558417 794.75990279 15.07699268 795.88886634 14 797 C14.75925781 797.24234375 15.51851563 797.4846875 16.30078125 797.734375 C17.29464844 798.06953125 18.28851563 798.4046875 19.3125 798.75 C20.79169922 799.23726562 20.79169922 799.23726562 22.30078125 799.734375 C25.27087246 801.12700821 26.3985239 802.1694841 28 805 C29.24883282 813.74182972 24.98279441 820.92871819 21.25 828.61328125 C14.43087242 842.70282929 8.78648934 857.01801002 13.4375 872.75 C18.7529848 886.8564789 26.72837848 899.21080334 36 911 C37.10988281 912.42892578 37.10988281 912.42892578 38.2421875 913.88671875 C42.53048347 919.26672377 47.09149546 924.37866547 51.75 929.4375 C52.56476807 930.32514038 52.56476807 930.32514038 53.39599609 931.23071289 C55.73556292 933.73893278 57.95401386 935.96495976 60.69140625 938.05078125 C63.43741518 940.36932348 64.62898989 942.52434369 66.1875 945.75 C66.67605469 946.73484375 67.16460937 947.7196875 67.66796875 948.734375 C70.33051794 955.26191494 71.36642037 961.34281785 71.3125 968.375 C71.30903564 969.11379395 71.30557129 969.85258789 71.30200195 970.61376953 C71.17706628 976.91853455 70.74952804 983.69757773 66.5625 988.7265625 C65 990 65 990 62.3125 990.5 C58.38085728 989.90654449 56.13765871 988.4524462 52.9296875 986.19140625 C48.25071777 983.30256866 42.93220533 983.42715194 37.640625 984.4609375 C28.62220184 986.84157715 21.40641134 991.36741928 16 999 C12.54952785 1005.03832627 11.86696881 1009.94024193 11.96582031 1016.83447266 C11.97357263 1017.51046288 11.98132494 1018.18645311 11.98931217 1018.88292789 C12.00630275 1020.36084133 12.02538153 1021.83873187 12.04628944 1023.31659508 C12.10213908 1027.43479552 12.13396236 1031.55319963 12.16772461 1035.67163086 C12.17515529 1036.55192491 12.18258596 1037.43221895 12.19024181 1038.33918858 C12.55873802 1084.15454454 10.57318711 1129.63358965 7.62020683 1175.3412838 C7.0994109 1183.41285536 6.59324898 1191.4852802 6.09228516 1199.55810547 C5.15448296 1214.66434865 4.207495 1229.76999172 3.25 1244.875 C3.13391451 1246.70640596 3.13391451 1246.70640596 3.01548386 1248.57481003 C2.56989757 1255.59201913 2.11980542 1262.60891641 1.66338158 1269.62542915 C1.52439531 1271.76833421 1.38652905 1273.91131223 1.24984169 1276.05436516 C1.06206445 1278.99333409 0.87001491 1281.93199249 0.67675781 1284.87060547 C0.59573523 1286.15837088 0.59573523 1286.15837088 0.51307583 1287.47215176 C0.25054774 1291.39384725 -0.08966343 1295.16254109 -1 1299 C-3.90731092 1296.09268908 -4.66172696 1292.52330939 -5.875 1288.6875 C-6.11863281 1287.96626953 -6.36226563 1287.24503906 -6.61328125 1286.50195312 C-12.32052452 1268.59658628 -13.58346455 1250.86143564 -13.49829102 1232.19262695 C-13.50212442 1229.7821367 -13.5077521 1227.37164874 -13.51501465 1224.96116638 C-13.52840103 1219.15129594 -13.52414554 1213.34163706 -13.51237936 1207.53176806 C-13.49997288 1200.74804844 -13.5129694 1193.96444355 -13.52793955 1187.18073764 C-13.55426499 1175.07466953 -13.56526426 1162.96864405 -13.56420898 1150.86254883 C-13.56415066 1150.14135623 -13.56409234 1149.42016363 -13.56403225 1148.67711671 C-13.56376637 1145.75452251 -13.56344907 1142.83192831 -13.56306899 1139.90933411 C-13.56210023 1131.84067855 -13.56343515 1123.77202427 -13.56616211 1115.70336914 C-13.566402 1114.97973945 -13.56664189 1114.25610977 -13.56688906 1113.51055191 C-13.57130068 1101.42998531 -13.58754619 1089.34945819 -13.6113829 1077.26891488 C-13.62415377 1070.50378384 -13.63011724 1063.73876566 -13.61987495 1056.97362709 C-13.61032435 1050.62292323 -13.61389469 1044.27236622 -13.62744904 1037.92167091 C-13.62985182 1035.59570768 -13.62713173 1033.2697325 -13.61884117 1030.94378281 C-13.60818106 1027.76245015 -13.61600099 1024.58166042 -13.62818909 1021.40034485 C-13.62061303 1020.4866245 -13.61303698 1019.57290414 -13.60523134 1018.6314953 C-13.67767134 1009.67850671 -15.51444604 1000.56601989 -22 994 C-29.44986384 987.96033983 -38.23461149 983.70156707 -48 984 C-52.29283654 984.91038948 -55.97353255 986.35547392 -59.6875 988.6875 C-62.73969602 990.41982747 -64.54704752 990.58773659 -68 990 C-73.09740775 985.46897089 -73.82845818 979.81388771 -74.22265625 973.34765625 C-74.6182644 960.64663336 -73.09099303 948.94581759 -64.33325195 939.13232422 C-62.50417628 937.28100067 -60.63768036 935.47896249 -58.75 933.6875 C-52.6892725 927.76999683 -47.18182187 921.71261474 -42 915 C-40.97373704 913.72439013 -39.94630598 912.44971953 -38.91796875 911.17578125 C-25.47689944 894.32458609 -12.61407203 875.52521248 -15 853 C-17.16020785 840.81837679 -23.68872782 829.41080769 -28.94018555 818.33740234 C-30.94239459 813.92156512 -31.80134572 809.81750192 -31 805 C-27.47048652 799.87651269 -22.7580254 798.54300027 -17 797 C-17.79664062 796.1646875 -17.79664062 796.1646875 -18.609375 795.3125 C-24.8287462 788.59376323 -29.65563435 782.4700553 -30 773 C-28.87970509 767.09299046 -26.96690884 763.13688077 -22.03125 759.58203125 C-16.49264706 756 -16.49264706 756 -14 756 C-14.0088409 754.95810265 -14.01768181 753.91620529 -14.02679062 752.84273529 C-14.33351472 716.39555368 -14.56238042 679.94796668 -14.75 643.5 C-14.75381569 642.76377517 -14.75763139 642.02755034 -14.76156271 641.26901567 C-15.26156 544.66720326 -14.93112178 448.08062346 -13.19613838 257.34735489 C-13.12474087 250.10827418 -13.05414245 242.86918579 -12.98362732 235.63009644 C-12.70203747 206.75459434 -12.41192879 177.87919104 -12.10910984 149.00390346 C-12.04180514 142.5844824 -11.97524574 136.16505421 -11.90927827 129.74561928 C-11.80585948 119.68859168 -11.69972729 109.63160001 -11.58826017 99.57465814 C-11.53783577 95.02471504 -11.48841156 90.47476864 -11.44217825 85.92478085 C-11.12562957 54.97575237 -11.12562957 54.97575237 -10.61178589 40.22946167 C-10.58519744 39.30145252 -10.55860899 38.37344338 -10.53121483 37.41731274 C-10.18194935 28.8900577 -7.95781293 21.4267635 -4.9375 13.5 C-4.45721321 12.16516429 -3.98000108 10.82921832 -3.50585938 9.4921875 C-2.37188839 6.31470499 -1.19885038 3.15367407 0 0 Z M-10.5625 926.5 C-11.27486816 926.8623877 -11.98723633 927.22477539 -12.72119141 927.59814453 C-24.47681072 933.72378968 -37.68295654 942.39150606 -43 955 C-42.80469849 957.29887008 -42.80469849 957.29887008 -42 959 C-40.329375 959.185625 -40.329375 959.185625 -38.625 959.375 C-37.89152344 959.47425781 -37.15804687 959.57351563 -36.40234375 959.67578125 C-34.81488301 959.89002392 -33.22324506 960.07550007 -31.62890625 960.23046875 C-19.61705634 961.86408034 -12.10391586 970.48250232 -4.8984375 979.4609375 C-3 982 -3 982 -2 984 C-1.34 984 -0.68 984 0 984 C1.26921613 982.37921697 2.46502621 980.7006787 3.625 979 C9.02844696 971.42151934 14.79003148 963.88545462 24 961 C26.580518 960.57320682 29.1130838 960.31731584 31.72265625 960.1484375 C34.2097504 959.98632845 36.57404726 959.56605564 39 959 C39.89724685 957.35669053 39.89724685 957.35669053 40 955 C33.1749415 940.82487851 20.41618727 933.16907637 7 926 C5.95328125 925.42894531 4.9065625 924.85789062 3.828125 924.26953125 C-1.7650032 921.75880381 -5.51864393 923.92302871 -10.5625 926.5 Z " fill="#160201" transform="translate(74,0)"/>
</svg>
